<svg xmlns="http://www.w3.org/2000/svg" data-name="Layer 1" viewBox="0 0 100 125" x="0px" y="0px"><title>vr_goggles_outline</title><path d="M44.83,89.74h-1.6L43,89.62a7,7,0,0,1-3.7-1.73l-.69-.64c-1.37-1.28-2.8-2.6-4.14-4s-3-3.18-4.9-5.27a18.69,18.69,0,0,1-3.11-4.4,9.25,9.25,0,0,1-.85-2.56.53.53,0,0,0,0-.11h0l-.14-.08-.15-.08-.07,0a1.58,1.58,0,0,1-1.87-.15c-.48-.35-1-.69-1.46-1l-1-.68c-.17-.12-.34-.26-.5-.4a2.15,2.15,0,0,0-.49-.36,7.94,7.94,0,0,1-3.93-2.89,33.14,33.14,0,0,0-3.66-4.06,10.07,10.07,0,0,1-1-1.14l-.38-.46-.18-.23a1.07,1.07,0,0,0-.11-.14l-2-1.49c-1.29-1-2.63-1.94-3.91-3a13.42,13.42,0,0,1-3.46-4A5.77,5.77,0,0,1,.31,47.3a31.29,31.29,0,0,0,0-6.56,7.18,7.18,0,0,0-.15-.81c0-.15-.07-.3-.1-.45l0-.19v-2l.22-.14a8.11,8.11,0,0,1,3.16-3.88,22.5,22.5,0,0,1,7.4-3.4l2-.54.24-.07c.16-.87.57-1.16,1.71-1.44l1.93-.47c.08-.2.15-.39.22-.58a4.32,4.32,0,0,1,1.33-4.21A9.26,9.26,0,0,0,20.57,19a3.28,3.28,0,0,1,1.18-1.42,2.17,2.17,0,0,0,.59-.59,11.74,11.74,0,0,1,7.11-5q2.7-.62,5.42-1.17l.62-.13a15.84,15.84,0,0,1,2.66-.42,15.8,15.8,0,0,1,9,2.47,32,32,0,0,1,8,7.28,1.83,1.83,0,0,0,.28.21c.13.09.26.18.39.28l.31.24a4.12,4.12,0,0,1,1,1c1.16,1.7,2.29,3.41,3.43,5.13l1.74,2.62a.63.63,0,0,0,.13.16l3.68,2,2.2,1.2.17.09a1.23,1.23,0,0,1,.73,0,2,2,0,0,1,1.65-1.37c.38-.05.77-.12,1.15-.19s.78-.14,1.18-.2a2.32,2.32,0,0,1,2.56,1.09,5.15,5.15,0,0,1,.79,2.58c0,.25,0,.51,0,.76s0,.5,0,.75l1,.3.7.2.27-.25c.19-.18.38-.35.58-.52a1.86,1.86,0,0,1,1.4-.52l.37.06a11.91,11.91,0,0,1,2.43.57A35.75,35.75,0,0,1,87,37.84c3.51,1.8,6.71,3.78,10.54,6.19a4.89,4.89,0,0,1,2.31,3.76c0,.2.06.39.1.58l.08.49,0,2.91c0,.12-.08.25-.13.38a1.92,1.92,0,0,0-.1.3,24.21,24.21,0,0,1-.33,3.89l-.06.42c-.06.47-.12.93-.17,1.4-.09.76-.17,1.55-.31,2.33a24.94,24.94,0,0,1-1.6,6A10.77,10.77,0,0,1,93.69,71a27,27,0,0,1-5,2.61l-.83.36c-1.43.63-2.9,1.2-4.32,1.75L82.8,76Q78.9,77.52,75,79l-3.8,1.45-5.41,2.07-4.05,1.55-1.6.6c-2,.78-4.16,1.58-6.27,2.31-1.89.66-3.82,1.26-5.7,1.85l-1.45.45c-.41.13-.84.22-1.26.31l-.52.11Zm-1.77-.11h0Zm.61-1.85h.94l.44-.1c.36-.08.73-.15,1.08-.26L47.58,87c1.86-.58,3.78-1.18,5.63-1.83,2.08-.73,4.18-1.52,6.22-2.29l1.6-.61,4-1.55,5.42-2.07,3.79-1.44q3.9-1.5,7.8-3l.72-.28c1.4-.54,2.85-1.11,4.24-1.72l.84-.37a25.1,25.1,0,0,0,4.67-2.41,8.88,8.88,0,0,0,2.92-3.75,23.44,23.44,0,0,0,1.46-5.52c.13-.72.21-1.44.29-2.2.05-.48.11-1,.18-1.45l.06-.42a22.39,22.39,0,0,0,.31-3.59,2.68,2.68,0,0,1,.22-1l0-.12,0-2.6c0-.24-.09-.48-.13-.72a3,3,0,0,0-1.4-2.34c-3.78-2.38-7-4.33-10.37-6.09A35,35,0,0,0,82.7,38a10.28,10.28,0,0,0-2-.46l-.14,0-.09.07c-.17.13-.32.28-.48.43s-.37.34-.56.5a1.54,1.54,0,0,1-1.3.28l-1-.29c-.4-.12-.8-.24-1.2-.34a1.54,1.54,0,0,1-1.24-1.63c0-.31,0-.62,0-.93s0-.53,0-.8a3.19,3.19,0,0,0-.53-1.61c-.06-.11-.11-.19-.59-.13s-.73.12-1.1.19-.83.15-1.24.21c0,0-.06,0-.09.16l-.51,2.08L69.25,35a2.87,2.87,0,0,0-.3-.15,1.92,1.92,0,0,1-1.48-.27l-2.25-1.23-3.69-2a2.44,2.44,0,0,1-.81-.78L59,27.91c-1.13-1.71-2.27-3.42-3.42-5.11a2.69,2.69,0,0,0-.57-.49l-.39-.3-.23-.16a3,3,0,0,1-.7-.59,30.08,30.08,0,0,0-7.53-6.85,13.67,13.67,0,0,0-7.89-2.19,14.25,14.25,0,0,0-2.33.37l-.64.13h0a17.37,17.37,0,0,1,6.14,3.1A36.37,36.37,0,0,1,50,25.29a2.25,2.25,0,0,1,.13.23L51,27.32l-2.62-.37L47,26.75l-.75-.1c-.77-.1-1.5-.19-2.24-.22-2.12-.08-4-.12-5.78-.1A44.22,44.22,0,0,0,29,27.44l-.21,0a2.07,2.07,0,0,1-2.4-.45l-.21,0-1.86.29.51-1.53.53-1.61c.38-1.17.77-2.38,1.2-3.56a16,16,0,0,1,3.74-6.07,13.72,13.72,0,0,1,1.25-1.06l-1.67.37a9.71,9.71,0,0,0-5.94,4.19,4.12,4.12,0,0,1-1.1,1.09,1.32,1.32,0,0,0-.46.52A11.16,11.16,0,0,1,19.47,24a2.45,2.45,0,0,0-.7,2.47,2,2,0,0,1-.07.9c-.09.27-.19.53-.31.81l-.32.82-2.91.7-.28.07c0,.08,0,.18,0,.29l0,.71-1.58.43-1.95.53a20.62,20.62,0,0,0-6.77,3.1A6,6,0,0,0,2,38l0,.14v1L2,39.5a9,9,0,0,1,.19,1,33.13,33.13,0,0,1,0,7,3.94,3.94,0,0,0,.62,2.32,11.51,11.51,0,0,0,3,3.39c1.26,1,2.58,2,3.86,2.92l2,1.51a2.5,2.5,0,0,1,.49.52l.1.12.42.5a8.59,8.59,0,0,0,.84.93A34.88,34.88,0,0,1,17.46,64a6,6,0,0,0,3,2.24,3.36,3.36,0,0,1,1.2.75,4.26,4.26,0,0,0,.34.28l1,.67,1.4,1a1.81,1.81,0,0,1,1.84.13l.11.06a2,2,0,0,1,1.2,1.65,7.51,7.51,0,0,0,.69,2A16.51,16.51,0,0,0,31,76.7c1.84,2.07,3.38,3.72,4.84,5.2s2.72,2.64,4.08,3.91l.69.64a5,5,0,0,0,2.77,1.24A1.28,1.28,0,0,1,43.67,87.78ZM24.08,69.11h0ZM80.28,37.47h0ZM68.81,34.79Zm.49-.08h0ZM27.14,25.13a1.66,1.66,0,0,1,.65.49.35.35,0,0,0,.09.08,1,1,0,0,0,.26-.08,1.73,1.73,0,0,1,.42-.1,46.52,46.52,0,0,1,9.68-1.15c1.8,0,3.72,0,5.87.1.82,0,1.63.14,2.41.24l.73.09a32.79,32.79,0,0,0-7.06-7.39,14.9,14.9,0,0,0-6-2.91l-.31-.07-.2,0-.68.53A13.83,13.83,0,0,0,31.69,16a14.17,14.17,0,0,0-3.27,5.35c-.42,1.14-.79,2.28-1.18,3.49ZM20.59,55.73l-1-.79c-2.2-1.66-4.57-3.19-6.86-4.67a92.54,92.54,0,0,1-9-6.31l-1-.83,1.09-.73.77-.53c.55-.38,1.07-.74,1.63-1.08a31,31,0,0,1,7.94-3.08,1.6,1.6,0,0,1,1.48.46L24,36l2.91-.76.07,0s0-.08,0-.13l0-.76,1.69-.38c.68-.15,1.36-.31,2-.44a50.45,50.45,0,0,1,10.68-.93A45.76,45.76,0,0,1,54,34.43a1.63,1.63,0,0,1,1.18,1.24l.13.57a20.47,20.47,0,0,0,1.28,4.12l.19.42.43,1-.73.45,0,0v.05l.53,0,.39,0a2.26,2.26,0,0,0,.43,0c2-.57,4-1.16,6-1.76l.56-.16a2.22,2.22,0,0,1,.39-.17,1.23,1.23,0,0,1,.66,0l.71.16.14.87,0,.68-.62.28a51.23,51.23,0,0,1-7.08,2.4L56.92,45V45L56,45.2l-.78.17c-.61.13-1.21.26-1.81.35l-.8.12c-1.91.28-3.89.57-5.85.78a45.65,45.65,0,0,1-8.73.12c-2.22-.19-4.46-.49-6.63-.78l-1.26-.17a8.47,8.47,0,0,0-5.42.72c-.25.14-.51.26-.77.38a5.88,5.88,0,0,0-1.09.6,4.38,4.38,0,0,0-1.48,3.17c-.09.7-.12,1.41-.15,2.16,0,.33,0,.66,0,1a2,2,0,0,1-.13.7ZM6,43.27c2.5,2,5.17,3.68,7.77,5.36,1.83,1.18,3.72,2.4,5.54,3.69,0-.63.06-1.27.14-1.91a6.4,6.4,0,0,1,2.23-4.48,7.4,7.4,0,0,1,1.46-.83c.22-.1.44-.21.66-.32a10.28,10.28,0,0,1,6.62-.95l1.26.17c2.14.29,4.36.58,6.54.77a43.76,43.76,0,0,0,8.36-.12c1.92-.2,3.88-.49,5.77-.77l.8-.12c.53-.08,1-.19,1.57-.3,0-.28-.09-.54-.14-.81a1.79,1.79,0,0,1,.24-1.58,22.72,22.72,0,0,1-1.36-4.39l-.1-.42a44,44,0,0,0-12-1.73,47.46,47.46,0,0,0-10.27.89c-.67.13-1.33.28-2,.43l-.3.07a1.7,1.7,0,0,1-1.43,1.2l-2.91.76-8.34,2.18a1.86,1.86,0,0,1-1.79-.38,28.55,28.55,0,0,0-7.16,2.79C6.79,42.71,6.39,43,6,43.27Z"/><text x="0" y="115" fill="#000000" font-size="5px" font-weight="bold" font-family="'Helvetica Neue', Helvetica, Arial-Unicode, Arial, Sans-serif">Created by Davo Sime</text><text x="0" y="120" fill="#000000" font-size="5px" font-weight="bold" font-family="'Helvetica Neue', Helvetica, Arial-Unicode, Arial, Sans-serif">from the Noun Project</text></svg>