<svg xmlns="http://www.w3.org/2000/svg" xmlns:xlink="http://www.w3.org/1999/xlink" version="1.1" x="0px" y="0px" viewBox="0 0 100 125" enable-background="new 0 0 100 100" xml:space="preserve"><path d="M87.889,14.907H17.056c-1.93,0-3.5,1.57-3.5,3.5v21.02h-1.444c-1.93,0-3.5,1.57-3.5,3.5v38.667c0,1.93,1.57,3.5,3.5,3.5  h18.167c1.93,0,3.5-1.57,3.5-3.5V70.572h12.038l-0.582,6.258c-0.025,0.366-0.425,3.576-6.502,3.576c-0.829,0-1.5,0.672-1.5,1.5  s0.671,1.5,1.5,1.5h27.48c0.828,0,1.5-0.672,1.5-1.5s-0.672-1.5-1.5-1.5c-6.077,0-6.477-3.21-6.507-3.64l-0.577-6.194h28.76  c1.93,0,3.5-1.57,3.5-3.5V18.407C91.389,16.477,89.818,14.907,87.889,14.907z M30.778,81.594c0,0.275-0.224,0.5-0.5,0.5H12.111  c-0.276,0-0.5-0.225-0.5-0.5V42.926c0-0.276,0.224-0.5,0.5-0.5h18.167c0.276,0,0.5,0.224,0.5,0.5V81.594z M46.771,80.406  c1.367-1.648,1.457-3.36,1.456-3.36l0.604-6.474h7.287l0.598,6.384c0.001,0.033,0.088,1.782,1.468,3.45H46.771z M88.389,67.072  c0,0.275-0.225,0.5-0.5,0.5h-54.11v-5.936h54.61V67.072z M88.389,58.637h-54.61v-15.71c0-1.93-1.57-3.5-3.5-3.5H16.556v-21.02  c0-0.276,0.224-0.5,0.5-0.5h70.833c0.275,0,0.5,0.224,0.5,0.5V58.637z"/><text x="0" y="115" fill="#000000" font-size="5px" font-weight="bold" font-family="'Helvetica Neue', Helvetica, Arial-Unicode, Arial, Sans-serif">Created by Chunk Icons</text><text x="0" y="120" fill="#000000" font-size="5px" font-weight="bold" font-family="'Helvetica Neue', Helvetica, Arial-Unicode, Arial, Sans-serif">from the Noun Project</text></svg>